#!OML:ASF I:\golf\golf\golf 2\Subject 1\2002-09-07\Subject1.ASF
:FULLY-SPECIFIED
:DEGREES
158
root -8.75448 17.6437 5.28287 -16.7974 83.7038 -33.0186
lowerback 8.23665 1.39991 -1.06336
upperback 8.66101 2.10456 4.51013
thorax 4.21773 1.02092 5.23008
lowerneck -12.3602 1.28694 3.74673
upperneck 41.0478 6.62236 -8.07783
head 17.6858 2.82765 -3.02167
rclavicle 1.78906e-014 3.10104e-014
rhumerus -16.3359 43.7662 -93.6723
rradius 63.9155
rwrist -59.105
rhand -36.9369 -20.055
rfingers 7.12502
rthumb -10.0137 -49.7967
lclavicle 1.78906e-014 3.10104e-014
lhumerus -18.5888 -48.7628 104.682
lradius 67.8146
lwrist 65.9858
lhand -14.0992 66.8445
lfingers 7.12502
lthumb -167.967 83.5215
rfemur -39.9678 -3.52728 19.9241
rtibia 38.2533
rfoot -10.0204 -0.504966
rtoes 2.20396
lfemur -37.9179 8.01552 -14.7397
ltibia 36.7674
lfoot -12.8934 -7.35518
ltoes -5.88411
159
root -8.75289 17.6478 5.28636 -16.4304 83.7198 -32.6231
lowerback 8.25986 1.3744 -1.22168
upperback 8.7013 2.06505 4.54606
thorax 4.2473 0.991693 5.36135
lowerneck -12.3825 1.21355 3.5966
upperneck 41.0093 6.56908 -8.13515
head 17.6618 2.77401 -3.02886
rclavicle 1.07344e-014 1.59028e-015
rhumerus -16.246 43.9502 -93.5907
rradius 63.8983
rwrist -59.1154
rhand -36.8898 -19.9827
rfingers 7.12502
rthumb -9.96834 -49.7267
lclavicle 1.07344e-014 1.59028e-015
lhumerus -18.4705 -48.5972 104.649
lradius 67.776
lwrist 65.8636
lhand -13.9956 66.8553
lfingers 7.12502
lthumb -167.867 83.5166
rfemur -39.877 -3.4999 19.8633
rtibia 38.1633
rfoot -10.0011 -0.507319
rtoes 2.45099
lfemur -37.8351 8.02504 -14.7764
ltibia 36.7081
lfoot -12.8978 -7.37911
ltoes -5.72905
160
root -8.75103 17.653 5.28969 -16.3655 83.6708 -32.5972
lowerback 8.23813 1.3492 -1.31227
upperback 8.7002 2.02641 4.57811
thorax 4.25931 0.966144 5.44977
lowerneck -12.325 1.16594 3.50898
upperneck 40.9524 6.55575 -8.23557
head 17.6152 2.74347 -3.06002
rclavicle 1.15295e-014 1.03368e-014
rhumerus -16.2402 44.1824 -93.5705
rradius 63.9049
rwrist -59.1535
rhand -36.9403 -19.9913
rfingers 7.12502
rthumb -10.017 -49.7329
lclavicle 1.15295e-014 1.03368e-014
lhumerus -18.4634 -48.4188 104.625
lradius 67.7974
lwrist 65.8347
lhand -13.5938 66.8081
lfingers 7.12502
lthumb -167.479 83.5871
rfemur -39.8581 -3.47389 19.8948
rtibia 38.0629
rfoot -9.98296 -0.465906
rtoes 2.56218
lfemur -37.8223 8.01604 -14.7337
ltibia 36.6657
lfoot -12.8751 -7.3223
ltoes -6.04269
161
root -8.75043 17.6561 5.29092 -16.9774 83.6419 -33.3147
lowerback 8.17519 1.30576 -1.23785
upperback 8.67773 1.97022 4.58929
thorax 4.27743 0.940846 5.42336
lowerneck -12.2493 1.14499 3.4355
upperneck 40.8635 6.54627 -8.27853
head 17.5424 2.7231 -3.06489
rclavicle 1.51076e-014 1.35174e-014
rhumerus -16.3206 44.3678 -93.632
rradius 63.9705
rwrist -59.1398
rhand -37.0338 -19.9512
rfingers 7.12502
rthumb -10.1072 -49.6884
lclavicle 1.51076e-014 1.35174e-014
lhumerus -18.4686 -48.2698 104.572
lradius 67.8273
lwrist 65.7724
lhand -13.8721 66.8425
lfingers 7.12502
lthumb -167.748 83.5364
rfemur -39.9174 -3.53616 20.0259
rtibia 37.9449
rfoot -9.92043 -0.402399
rtoes 2.45531
lfemur -37.9217 7.98646 -14.6387
ltibia 36.6374
lfoot -12.8647 -7.24894
ltoes -6.42173
162
root -8.75066 17.6593 5.29185 -18.4793 83.6128 -34.8909
lowerback 8.1426 1.28083 -1.02368
upperback 8.68244 1.94741 4.59786
thorax 4.30753 0.940448 5.31296
lowerneck -12.2221 1.08834 3.4183
upperneck 40.7913 6.4619 -8.31316
head 17.4854 2.68101 -3.09022
rclavicle 3.97569e-016 -1.03368e-014
rhumerus -16.3806 44.3846 -93.6965
rradius 64.0738
rwrist -59.0504
rhand -36.9177 -19.8312
rfingers 7.12502
rthumb -9.99521 -49.5738
lclavicle 3.97569e-016 -1.03368e-014
lhumerus -18.4424 -48.3337 104.502
lradius 67.8508
lwrist 65.8444
lhand -14.158 66.9789
lfingers 7.12502
lthumb -168.023 83.3838
rfemur -39.9283 -3.61954 20.2485
rtibia 37.8272
rfoot -9.8413 -0.307617
rtoes 2.64664
lfemur -37.9947 7.97098 -14.45
ltibia 36.6097
lfoot -12.8363 -7.23536
ltoes -6.44891
163
root -8.74965 17.663 5.29382 -19.2899 83.5408 -35.7553
lowerback 8.09869 1.28897 -0.982224
upperback 8.69859 1.95985 4.64767
thorax 4.34778 0.947067 5.34379
lowerneck -12.2805 1.02603 3.34888
upperneck 40.8624 6.40438 -8.319
head 17.5341 2.64592 -3.0933
rclavicle 2.38542e-014 2.06736e-014
rhumerus -16.3908 44.4133 -93.6826
rradius 64.154
rwrist -58.9819
rhand -36.8195 -19.7741
rfingers 7.12502
rthumb -9.9005 -49.5213
lclavicle 2.38542e-014 2.06736e-014
lhumerus -18.4286 -48.4212 104.514
lradius 67.9196
lwrist 66.1647
lhand -14.9277 67.2664
lfingers 7.12502
lthumb -168.765 83.0544
rfemur -39.9188 -3.56184 20.3725
rtibia 37.7299
rfoot -9.7878 -0.256069
rtoes 2.7556
lfemur -38.0239 8.03494 -14.3295
ltibia 36.5807
lfoot -12.8479 -7.23903
ltoes -6.5712
164
root -8.74805 17.6656 5.29531 -19.1773 83.5191 -35.6836
lowerback 8.06239 1.2925 -1.07952
upperback 8.70446 1.95917 4.68728
thorax 4.3712 0.939812 5.4428
lowerneck -12.3311 0.988147 3.24494
upperneck 40.9439 6.37865 -8.28052
head 17.5866 2.62403 -3.06402
rclavicle -1.03368e-014 -3.97569e-014
rhumerus -16.3706 44.4891 -93.6442
rradius 64.1723
rwrist -58.978
rhand -36.8571 -19.7941
rfingers 7.12502
rthumb -9.9368 -49.5396
lclavicle -1.03368e-014 -3.97569e-014
lhumerus -18.3335 -48.2852 104.486
lradius 68.1654
lwrist 66.5149
lhand -15.4764 67.2108
lfingers 7.12502
lthumb -169.295 83.082
rfemur -39.909 -3.44474 20.3363
rtibia 37.6533
rfoot -9.76076 -0.297167
rtoes 2.88133
lfemur -38.0391 8.09146 -14.3467
ltibia 36.5454
lfoot -12.9068 -7.2379
ltoes -7.0745
165
root -8.74758 17.6672 5.29599 -18.4792 83.5722 -35.0052
lowerback 8.06258 1.31049 -1.15925
upperback 8.71461 1.97954 4.65296
thorax 4.37882 0.946281 5.45105
lowerneck -12.3774 0.931349 3.194
upperneck 40.978 6.28514 -8.21886
head 17.6031 2.58487 -3.04389
rclavicle -1.47101e-014 5.56597e-015
rhumerus -16.3429 44.4501 -93.5949
rradius 64.1902
rwrist -59
rhand -36.9475 -19.7906
rfingers 7.12502
rthumb -10.0239 -49.5319
lclavicle -1.47101e-014 5.56597e-015
lhumerus -18.3135 -48.4315 104.484
lradius 67.9239
lwrist 66.2208
lhand -15.0743 67.1499
lfingers 7.12502
lthumb -168.907 83.1633
rfemur -39.9018 -3.40657 20.2185
rtibia 37.5947
rfoot -9.70616 -0.392444
rtoes 3.13308
lfemur -38.0414 8.10329 -14.4564
ltibia 36.4966
lfoot -12.879 -7.31173
ltoes -6.8173
166
root -8.74762 17.6685 5.29745 -17.4879 83.6304 -34.031
lowerback 8.06514 1.33037 -1.27033
upperback 8.7299 2.0011 4.61197
thorax 4.38992 0.951719 5.47013
lowerneck -12.4623 0.880325 3.13945
upperneck 41.0591 6.22278 -8.17938
head 17.6624 2.55513 -3.02978
rclavicle -2.82274e-014 -4.13472e-014
rhumerus -16.3356 44.3767 -93.5685
rradius 64.1989
rwrist -58.9465
rhand -37.0431 -19.7037
rfingers 7.12502
rthumb -10.1163 -49.4405
lclavicle -2.82274e-014 -4.13472e-014
lhumerus -18.2411 -48.4461 104.436
lradius 67.9238
lwrist 66.2295
lhand -14.9588 67.0782
lfingers 7.12502
lthumb -168.796 83.241
rfemur -39.9087 -3.36914 20.0731
rtibia 37.5489
rfoot -9.64313 -0.505484
rtoes 3.23525
lfemur -38.0307 8.07869 -14.5804
ltibia 36.4273
lfoot -12.7627 -7.38737
ltoes -5.8407
